<!DOCTYPE svg PUBLIC "-//W3C//DTD SVG 1.1//EN" "http://www.w3.org/Graphics/SVG/1.1/DTD/svg11.dtd">

<svg width="80px" height="80px" viewBox="0 0 32 32" id="Camada_1" version="1.1" xml:space="preserve" xmlns="http://www.w3.org/2000/svg" xmlns:xlink="http://www.w3.org/1999/xlink" fill="#000000">

<g id="SVGRepo_bgCarrier" stroke-width="0"/>

<g id="SVGRepo_tracerCarrier" stroke-linecap="round" stroke-linejoin="round"/>

<g id="SVGRepo_iconCarrier">

<style type="text/css"> .st0{fill-rule:evenodd;clip-rule:evenodd;fill:#FFFFFF;} </style>

<path d="M6,2h20c2.2,0,4,1.8,4,4v20c0,2.2-1.8,4-4,4H6c-2.2,0-4-1.8-4-4V6C2,3.8,3.8,2,6,2z"/>

<path class="st0" d="M22,25h2c1.1,0,2-0.9,2-2V8.6c0-0.4-0.5-0.7-0.8-0.4L22,10.9V25z M20,13.2l-6.7,5.7c-0.7,0.6-1.8,0.6-2.6,0 l-4.7-4V23c0,1.1,0.9,2,2,2h12V13.2z M6,8.6v3.7l6,5.1l2.8-2.4c0,0-0.1-0.1-0.1-0.1L6.8,8.2C6.5,7.9,6,8.2,6,8.6z"/>

</g>

</svg>